# Blender v2.91.2 OBJ File: ''
# www.blender.org
mtllib obj_object.mtl
o Cube
v -0.698646 0.445764 2.662055
v -0.731395 -0.071410 2.854277
v -1.608350 0.471649 2.670948
v -1.654365 -0.044882 2.857048
v -2.213903 -0.044949 1.630479
v -1.879461 0.821383 1.671034
v -0.235117 -0.048284 1.673920
v -0.746116 0.820445 1.685023
v -0.648908 1.027519 -0.015097
v -0.320754 -0.049049 -0.102601
v -0.988266 1.050131 0.471149
v -0.526201 -0.053401 0.606361
v -1.539815 -0.042130 -0.961661
v -1.385943 1.030261 -0.596042
v -0.539272 -0.050386 -0.941758
v -0.745893 1.026154 -0.595200
v -1.705707 1.029728 -0.078379
v -1.984968 -0.049684 -0.138418
v -1.499847 1.105585 0.498238
v -2.068920 -0.056154 0.936139
v -0.401920 3.836959 0.009432
v -0.545084 3.834944 -0.846883
v -1.961905 3.840219 -0.083981
v -1.489888 3.841007 -0.848125
v -0.852915 3.875109 0.693299
v -1.604389 3.983243 0.651230
v -0.537442 4.761559 -0.041758
v -0.650062 4.759974 -0.715378
v -1.764603 4.764124 -0.115242
v -1.393291 4.764743 -0.716355
v -0.666509 4.759091 0.508841
v -1.698558 4.920265 0.426362
v -0.294907 6.295501 0.139630
v -0.469244 6.149491 -0.684382
v -1.846086 6.073916 -0.043012
v -1.360584 6.172565 -0.732272
v -0.697834 6.191776 0.810185
v -1.800917 6.161904 0.631583
v -0.115627 8.038706 0.200546
v -0.332991 8.537563 -0.530590
v -1.721940 8.091912 -0.000188
v -1.223678 8.253091 -0.668230
v -0.286000 8.291500 1.131924
v -1.687741 8.234509 0.976339
v 0.714948 0.445764 2.662055
v 0.747697 -0.071410 2.854277
v 1.624652 0.471649 2.670948
v 1.670666 -0.044882 2.857048
v 2.230205 -0.044949 1.630479
v 1.895762 0.821383 1.671034
v 0.251419 -0.048284 1.673920
v 0.762417 0.820445 1.685023
v 0.665210 1.027519 -0.015097
v 0.337056 -0.049049 -0.102601
v 1.004568 1.050131 0.471149
v 0.542503 -0.053401 0.606361
v 1.556117 -0.042130 -0.961661
v 1.402245 1.030261 -0.596042
v 0.555573 -0.050386 -0.941758
v 0.762195 1.026154 -0.595200
v 1.722009 1.029728 -0.078379
v 2.001269 -0.049684 -0.138418
v 1.516149 1.105585 0.498238
v 2.085221 -0.056154 0.936139
v 0.418221 3.836959 0.009432
v 0.561385 3.834944 -0.846883
v 1.978207 3.840219 -0.083981
v 1.506189 3.841007 -0.848125
v 0.869216 3.875109 0.693299
v 1.620691 3.983243 0.651230
v 0.553743 4.761559 -0.041758
v 0.666363 4.759974 -0.715378
v 1.780904 4.764124 -0.115242
v 1.409593 4.764743 -0.716355
v 0.682810 4.759091 0.508841
v 1.714859 4.920265 0.426362
v 0.375461 6.282540 0.175409
v 0.598963 6.128838 -0.627368
v 1.895803 6.001569 0.156704
v 1.490562 6.117441 -0.580097
v 0.726918 6.164230 0.886229
v 1.782536 6.092620 0.822843
v 0.224026 8.032474 0.224946
v 0.561694 8.521146 -0.466317
v 1.843400 8.026486 0.255938
v 1.451926 8.203992 -0.476020
v 0.298743 8.280770 1.173931
v 1.719341 8.171987 1.221097
v -0.367701 8.974603 -0.914841
v -1.693094 9.107079 -0.008552
v -1.258069 8.996788 -0.978607
v -0.475908 8.977501 1.204382
v -1.678631 9.143896 1.016351
v 0.526983 8.958185 -0.850569
v 1.872245 9.041653 0.247575
v 1.417536 8.947689 -0.786397
v 0.458186 8.960361 1.271485
v 1.724435 9.088717 1.313207
v -0.341913 9.623466 -0.753095
v -1.658589 9.199310 -0.052303
v -1.232280 9.645650 -0.816860
v -0.481080 9.264281 1.178528
v -1.658896 9.249674 0.967975
v 0.552772 9.607047 -0.688823
v 1.906750 9.133884 0.203824
v 1.443325 9.596552 -0.624650
v 0.453014 9.247140 1.245631
v 1.735770 9.158144 1.301720
v -0.209068 10.377136 -0.431032
v -1.267655 10.351351 0.209436
v -0.897496 10.394289 -0.480335
v -0.317812 10.195695 1.055269
v -1.268046 10.376678 0.947370
v 0.482697 10.364443 -0.381337
v 1.489047 10.300763 0.407472
v 1.171268 10.356326 -0.331719
v 0.404425 10.182442 1.107153
v 1.366292 10.328337 1.136616
vt 0.375000 0.500000
vt 0.625000 0.500000
vt 0.625000 0.500000
vt 0.375000 0.500000
vt 0.297707 0.556460
vt 0.290229 0.559798
vt 0.287636 0.554067
vt 0.295849 0.552619
vt 0.625000 0.250000
vt 0.375000 0.250000
vt 0.375000 0.250000
vt 0.625000 0.250000
vt 0.625000 1.000000
vt 0.625000 0.750000
vt 0.625000 0.750000
vt 0.625000 1.000000
vt 0.287693 0.546808
vt 0.295905 0.547976
vt 0.295780 0.571879
vt 0.302342 0.568653
vt 0.303327 0.576188
vt 0.301080 0.579508
vt 0.875000 0.750000
vt 0.875000 0.750000
vt 0.875000 0.750000
vt 0.875000 0.750000
vt 0.625000 0.500000
vt 0.375000 0.500000
vt 0.994884 0.483357
vt 0.000070 0.483605
vt 0.015724 0.017152
vt 0.969624 0.013822
vt 0.647330 0.993468
vt 0.319530 0.996715
vt 0.301430 0.531262
vt 0.295249 0.528566
vt 0.300767 0.520492
vt 0.303327 0.523561
vt 0.375000 0.500000
vt 0.625000 0.500000
vt 0.625000 0.750000
vt 0.375000 0.750000
vt 0.293119 0.564306
vt 0.300540 0.559700
vt 0.290038 0.540436
vt 0.297396 0.543822
vt 0.293268 0.533315
vt 0.300233 0.540361
vt 0.625000 0.750000
vt 0.625000 0.750000
vt 0.625000 0.750000
vt 0.449585 0.806821
vt 0.465949 0.804538
vt 0.469257 0.826009
vt 0.446200 0.829381
vt 0.625000 0.750000
vt 0.454693 0.739073
vt 0.465341 0.737700
vt 0.362708 0.693458
vt 0.371990 0.694500
vt 0.374212 0.738101
vt 0.361796 0.736175
vt 0.375000 0.750000
vt 0.375000 0.500000
vt 0.375000 0.500000
vt 0.375000 0.750000
vt 0.362900 0.750443
vt 0.371253 0.752457
vt 0.372447 0.763210
vt 0.362413 0.760791
vt 0.875000 0.750000
vt 0.875000 0.750000
vt 0.875000 0.750000
vt 0.875000 0.750000
vt 0.375000 0.500000
vt 0.375000 0.750000
vt 0.625000 1.000000
vt 0.375000 0.750000
vt 0.375000 0.500000
vt 0.375000 0.500000
vt 0.375000 0.750000
vt 0.625000 0.750000
vt 0.625000 0.750000
vt 0.625000 0.750000
vt 0.625000 0.750000
vt 0.625000 1.000000
vt 0.471636 0.842070
vt 0.445589 0.841153
vt 0.875000 0.750000
vt 0.875000 0.750000
vt 0.875000 0.750000
vt 0.875000 0.750000
vt 0.375000 0.500000
vt 0.375000 0.750000
vt 0.875000 0.750000
vt 0.875000 0.750000
vt 0.371831 0.794042
vt 0.361796 0.791622
vt 0.625000 1.000000
vt 0.471636 0.890060
vt 0.445589 0.889143
vt 0.375000 0.500000
vt 0.375000 0.500000
vt 0.625000 0.500000
vt 0.625000 0.500000
vt 0.297707 0.556460
vt 0.295849 0.552619
vt 0.287636 0.554067
vt 0.290229 0.559798
vt 0.625000 0.250000
vt 0.625000 0.250000
vt 0.375000 0.250000
vt 0.375000 0.250000
vt 0.625000 1.000000
vt 0.625000 1.000000
vt 0.625000 0.750000
vt 0.625000 0.750000
vt 0.287693 0.546808
vt 0.295905 0.547976
vt 0.295780 0.571879
vt 0.301080 0.579508
vt 0.303327 0.576188
vt 0.302342 0.568653
vt 0.875000 0.750000
vt 0.875000 0.750000
vt 0.875000 0.750000
vt 0.875000 0.750000
vt 0.375000 0.500000
vt 0.625000 0.500000
vt 0.994884 0.483357
vt 0.969624 0.013822
vt 0.015724 0.017152
vt 0.000070 0.483605
vt 0.647330 0.993468
vt 0.319530 0.996715
vt 0.301430 0.531262
vt 0.303327 0.523561
vt 0.300767 0.520492
vt 0.295249 0.528566
vt 0.375000 0.500000
vt 0.375000 0.750000
vt 0.625000 0.750000
vt 0.625000 0.500000
vt 0.293119 0.564306
vt 0.300540 0.559700
vt 0.290038 0.540436
vt 0.297396 0.543822
vt 0.293268 0.533315
vt 0.300233 0.540361
vt 0.625000 0.750000
vt 0.625000 0.750000
vt 0.625000 0.750000
vt 0.449585 0.806821
vt 0.446200 0.829381
vt 0.469257 0.826009
vt 0.465949 0.804538
vt 0.625000 0.750000
vt 0.454693 0.739073
vt 0.465341 0.737700
vt 0.362708 0.693458
vt 0.361796 0.736175
vt 0.374212 0.738101
vt 0.371990 0.694500
vt 0.375000 0.750000
vt 0.375000 0.750000
vt 0.375000 0.500000
vt 0.375000 0.500000
vt 0.362900 0.750443
vt 0.362413 0.760791
vt 0.372447 0.763210
vt 0.371253 0.752457
vt 0.875000 0.750000
vt 0.875000 0.750000
vt 0.875000 0.750000
vt 0.875000 0.750000
vt 0.375000 0.750000
vt 0.375000 0.500000
vt 0.625000 1.000000
vt 0.375000 0.750000
vt 0.375000 0.750000
vt 0.375000 0.500000
vt 0.375000 0.500000
vt 0.625000 0.750000
vt 0.625000 0.750000
vt 0.625000 0.750000
vt 0.625000 0.750000
vt 0.625000 1.000000
vt 0.445589 0.841153
vt 0.471636 0.842070
vt 0.454353 0.493750
vt 0.454353 0.493750
vt 0.454353 0.493750
vt 0.454353 0.493750
vt 0.371831 0.794042
vt 0.361796 0.791622
vt 0.361796 0.791622
vt 0.371831 0.794042
vt 0.625000 1.000000
vt 0.445589 0.889143
vt 0.471636 0.890060
vt 0.454353 0.493750
vt 0.454353 0.493750
vt 0.454353 0.493750
vt 0.454353 0.493750
vt 0.445589 0.889143
vt 0.471636 0.890060
vt 0.875000 0.750000
vt 0.875000 0.750000
vt 0.361796 0.791622
vt 0.371831 0.794042
vt 0.454353 0.493750
vt 0.454353 0.493750
vt 0.471636 0.890060
vt 0.445589 0.889143
vt 0.375000 0.750000
vt 0.375000 0.500000
vt 0.875000 0.750000
vt 0.875000 0.750000
vt 0.454353 0.493750
vt 0.454353 0.493750
vt 0.445589 0.889143
vt 0.471636 0.890060
vt 0.375000 0.500000
vt 0.375000 0.750000
vt 0.454353 0.493750
vt 0.454353 0.493750
vt 0.875000 0.750000
vt 0.875000 0.750000
vt 0.375000 0.750000
vt 0.375000 0.500000
vt 0.371831 0.794042
vt 0.361796 0.791622
vt 0.471636 0.890060
vt 0.445589 0.889143
vt 0.361796 0.791622
vt 0.371831 0.794042
vt 0.875000 0.750000
vt 0.875000 0.750000
vt 0.454353 0.493750
vt 0.454353 0.493750
vt 0.445589 0.889143
vt 0.471636 0.890060
vt 0.375000 0.500000
vt 0.375000 0.750000
vt 0.454353 0.493750
vt 0.454353 0.493750
vt 0.375000 0.750000
vt 0.375000 0.500000
vt 0.371831 0.794042
vt 0.361796 0.791622
vt 0.471636 0.890060
vt 0.445589 0.889143
vt 0.361796 0.791622
vt 0.371831 0.794042
vt 0.875000 0.750000
vt 0.875000 0.750000
vn -0.0102 -0.9999 -0.0093
vn 0.9384 0.2752 -0.2091
vn -0.0028 -1.0000 -0.0041
vn 0.8240 -0.0805 0.5608
vn 0.0144 0.3149 -0.9490
vn 0.9042 0.3449 0.2517
vn -0.8481 -0.0784 -0.5240
vn 0.0005 -1.0000 -0.0060
vn 0.0115 0.9395 0.3424
vn 0.0352 0.9766 0.2123
vn -0.8834 0.2824 0.3739
vn 0.0158 0.3426 0.9394
vn 0.0006 -1.0000 0.0092
vn 0.8885 0.4280 -0.1655
vn 0.8635 0.3215 0.3887
vn -0.8387 0.2631 -0.4768
vn -0.9309 0.3614 0.0535
vn -0.9087 0.3653 -0.2019
vn 0.9773 0.1342 -0.1637
vn -0.0347 0.2209 0.9747
vn 0.9828 -0.0850 -0.1641
vn -0.0203 -0.0655 0.9976
vn -0.9125 -0.0683 0.4033
vn 0.0007 -0.0893 -0.9960
vn -0.9908 -0.0831 0.1073
vn -0.8329 -0.0035 -0.5533
vn 0.0022 0.1410 -0.9900
vn -0.8396 0.1618 -0.5185
vn -0.9513 0.0932 0.2938
vn 0.9050 0.0298 0.4244
vn 0.0973 0.0425 -0.9943
vn 0.9646 -0.0603 -0.2567
vn 0.9133 -0.1280 0.3867
vn -0.1307 -0.1908 0.9729
vn 0.9762 -0.1287 -0.1744
vn 0.0299 0.0031 -0.9995
vn 0.8978 -0.0758 -0.4338
vn 0.1691 -0.4924 -0.8538
vn -0.8139 0.0669 -0.5771
vn -0.9977 0.0541 0.0404
vn 0.9215 -0.1762 0.3462
vn -0.1261 -0.1410 0.9819
vn 0.0102 -0.9999 -0.0093
vn -0.9384 0.2752 -0.2091
vn 0.0028 -1.0000 -0.0041
vn -0.8240 -0.0805 0.5608
vn -0.0144 0.3149 -0.9490
vn -0.9042 0.3449 0.2517
vn 0.8481 -0.0784 -0.5240
vn -0.0005 -1.0000 -0.0060
vn -0.0115 0.9395 0.3424
vn -0.0352 0.9766 0.2123
vn 0.8834 0.2824 0.3739
vn -0.0158 0.3426 0.9394
vn -0.0006 -1.0000 0.0092
vn -0.8885 0.4280 -0.1655
vn -0.8635 0.3215 0.3887
vn 0.8387 0.2631 -0.4768
vn 0.9309 0.3614 0.0535
vn 0.9087 0.3653 -0.2019
vn -0.9773 0.1342 -0.1637
vn 0.0347 0.2208 0.9747
vn -0.9828 -0.0850 -0.1641
vn 0.0203 -0.0655 0.9976
vn 0.9125 -0.0683 0.4033
vn -0.0007 -0.0893 -0.9960
vn 0.9780 -0.1213 0.1700
vn 0.8653 0.0135 -0.5011
vn -0.0022 0.1410 -0.9900
vn 0.8396 0.1618 -0.5185
vn 0.9513 0.0932 0.2938
vn -0.9050 0.0298 0.4244
vn 0.0320 0.0596 -0.9977
vn -0.9340 -0.0244 -0.3563
vn -0.9321 -0.1127 0.3443
vn 0.0791 -0.2898 0.9538
vn -0.9746 -0.0601 -0.2156
vn 0.0285 0.0820 -0.9962
vn 0.0420 -0.6578 -0.7520
vn -0.9996 0.0193 0.0226
vn 0.8818 0.0428 -0.4698
vn 0.9897 0.0106 0.1425
vn -0.9521 -0.1652 0.2574
vn -0.0053 -0.1619 0.9868
vn -0.0361 -0.9661 0.2556
vn 0.0258 -0.8222 -0.5686
vn -0.0320 -0.1147 0.9929
vn -0.8639 -0.0924 -0.4951
vn 0.9906 -0.0232 0.1348
vn -0.0734 -0.1248 0.9895
vn -0.1338 -0.0848 0.9874
vn -0.0674 -0.5088 -0.8582
vn 0.8967 -0.0025 -0.4426
vn -0.0698 0.0883 0.9936
vn -0.0397 0.1049 0.9937
vn 0.0753 0.2384 -0.9683
vn 0.0739 0.2384 -0.9683
vn -0.8974 0.1397 -0.4186
vn 0.0726 0.2385 -0.9684
vn -0.9650 0.2622 -0.0045
vn -0.1504 0.1891 0.9704
vn 0.9635 -0.2222 0.1493
vn -0.8467 0.4243 -0.3210
vn -0.0683 0.1426 0.9874
vn -0.0411 0.1346 0.9900
vn 0.0755 0.3805 -0.9217
vn 0.0732 0.3810 -0.9217
vn 0.0709 0.3808 -0.9219
vn -0.9453 0.3258 -0.0144
vn -0.1390 0.1062 0.9846
vn 0.9388 0.3139 0.1420
vn 0.8692 0.3896 -0.3044
usemtl Material
s off
f 5/1/1 7/2/1 2/3/1 4/4/1
f 9/5/2 10/6/2 15/7/2 16/8/2
f 10/9/3 18/10/3 13/11/3 15/12/3
f 11/13/4 9/14/4 21/15/4 25/16/4
f 13/17/5 14/18/5 16/8/5 15/7/5
f 7/19/6 8/20/6 1/21/6 2/22/6
f 14/23/7 17/24/7 23/25/7 24/26/7
f 18/10/8 10/9/8 12/27/8 20/28/8
f 8/29/9 6/30/9 3/31/9 1/32/9
f 11/33/10 19/34/10 6/30/10 8/29/10
f 6/35/11 5/36/11 4/37/11 3/38/11
f 2/39/12 1/40/12 3/41/12 4/42/12
f 20/28/13 12/27/13 7/2/13 5/1/13
f 12/43/14 11/44/14 8/20/14 7/19/14
f 10/6/15 9/5/15 11/44/15 12/43/15
f 18/45/16 17/46/16 14/18/16 13/17/16
f 20/47/17 19/48/17 17/46/17 18/45/17
f 19/48/18 20/47/18 5/36/18 6/35/18
f 21/15/19 22/49/19 28/50/19 27/51/19
f 26/52/20 25/53/20 31/54/20 32/55/20
f 9/14/21 16/56/21 22/49/21 21/15/21
f 19/57/22 11/58/22 25/53/22 26/52/22
f 17/59/23 19/60/23 26/61/23 23/62/23
f 16/63/24 14/64/24 24/65/24 22/66/24
f 29/67/25 32/68/25 38/69/25 35/70/25
f 30/71/26 29/72/26 35/73/26 36/74/26
f 22/66/27 24/65/27 30/75/27 28/76/27
f 24/26/28 23/25/28 29/72/28 30/71/28
f 23/62/29 26/61/29 32/68/29 29/67/29
f 25/16/30 21/15/30 27/51/30 31/77/30
f 34/78/31 36/79/31 42/80/31 40/81/31
f 33/82/32 34/83/32 40/84/32 39/85/32
f 31/77/33 27/51/33 33/82/33 37/86/33
f 32/55/34 31/54/34 37/87/34 38/88/34
f 27/51/35 28/50/35 34/83/35 33/82/35
f 28/76/36 30/75/36 36/79/36 34/78/36
f 86/89/37 96/90/37 95/91/37 85/92/37
f 40/81/38 42/80/38 91/93/38 89/94/38
f 36/74/39 35/73/39 41/95/39 42/96/39
f 35/70/40 38/69/40 44/97/40 41/98/40
f 37/86/41 33/82/41 39/85/41 43/99/41
f 38/88/42 37/87/42 43/100/42 44/101/42
f 49/102/43 48/103/43 46/104/43 51/105/43
f 53/106/44 60/107/44 59/108/44 54/109/44
f 54/110/45 59/111/45 57/112/45 62/113/45
f 55/114/46 69/115/46 65/116/46 53/117/46
f 57/118/47 59/108/47 60/107/47 58/119/47
f 51/120/48 46/121/48 45/122/48 52/123/48
f 58/124/49 68/125/49 67/126/49 61/127/49
f 62/113/50 64/128/50 56/129/50 54/110/50
f 52/130/51 45/131/51 47/132/51 50/133/51
f 55/134/52 52/130/52 50/133/52 63/135/52
f 50/136/53 47/137/53 48/138/53 49/139/53
f 46/140/54 48/141/54 47/142/54 45/143/54
f 64/128/55 49/102/55 51/105/55 56/129/55
f 56/144/56 51/120/56 52/123/56 55/145/56
f 54/109/57 56/144/57 55/145/57 53/106/57
f 62/146/58 57/118/58 58/119/58 61/147/58
f 64/148/59 62/146/59 61/147/59 63/149/59
f 63/149/60 50/136/60 49/139/60 64/148/60
f 65/116/61 71/150/61 72/151/61 66/152/61
f 70/153/62 76/154/62 75/155/62 69/156/62
f 53/117/63 65/116/63 66/152/63 60/157/63
f 63/158/64 70/153/64 69/156/64 55/159/64
f 61/160/65 67/161/65 70/162/65 63/163/65
f 60/164/66 66/165/66 68/166/66 58/167/66
f 73/168/67 79/169/67 82/170/67 76/171/67
f 74/172/68 80/173/68 79/174/68 73/175/68
f 66/165/69 72/176/69 74/177/69 68/166/69
f 68/125/70 74/172/70 73/175/70 67/126/70
f 67/161/71 73/168/71 76/171/71 70/162/71
f 69/115/72 75/178/72 71/150/72 65/116/72
f 78/179/73 84/180/73 86/181/73 80/182/73
f 77/183/74 83/184/74 84/185/74 78/186/74
f 75/178/75 81/187/75 77/183/75 71/150/75
f 76/154/76 82/188/76 81/189/76 75/155/76
f 71/150/77 77/183/77 78/186/77 72/151/77
f 72/176/78 78/179/78 80/182/78 74/177/78
f 84/190/79 40/191/79 89/192/79 94/193/79
f 41/98/80 44/97/80 93/194/80 90/195/80
f 80/173/81 86/89/81 85/92/81 79/174/81
f 79/169/82 85/196/82 88/197/82 82/170/82
f 81/187/83 87/198/83 83/184/83 77/183/83
f 82/188/84 88/199/84 87/200/84 81/189/84
f 87/201/85 43/202/85 39/203/85 83/204/85
f 83/204/86 39/203/86 40/191/86 84/190/86
f 88/199/87 98/205/87 97/206/87 87/200/87
f 42/96/88 41/95/88 90/207/88 91/208/88
f 85/196/89 95/209/89 98/210/89 88/197/89
f 43/202/90 87/201/90 97/211/90 92/212/90
f 44/101/91 43/100/91 92/213/91 93/214/91
f 84/180/92 94/215/92 96/216/92 86/181/92
f 96/90/93 106/217/93 105/218/93 95/91/93
f 92/212/94 97/211/94 107/219/94 102/220/94
f 98/205/95 108/221/95 107/222/95 97/206/95
f 89/94/96 91/93/96 101/223/96 99/224/96
f 94/193/97 89/192/97 99/225/97 104/226/97
f 91/208/98 90/207/98 100/227/98 101/228/98
f 94/215/99 104/229/99 106/230/99 96/216/99
f 90/195/100 93/194/100 103/231/100 100/232/100
f 93/214/101 92/213/101 102/233/101 103/234/101
f 95/209/102 105/235/102 108/236/102 98/210/102
f 101/228/103 100/227/103 110/237/103 111/238/103
f 102/220/104 107/219/104 117/239/104 112/240/104
f 108/221/105 118/241/105 117/242/105 107/222/105
f 99/224/106 101/223/106 111/243/106 109/244/106
f 104/226/107 99/225/107 109/245/107 114/246/107
f 104/229/108 114/247/108 116/248/108 106/230/108
f 100/232/109 103/231/109 113/249/109 110/250/109
f 103/234/110 102/233/110 112/251/110 113/252/110
f 105/235/111 115/253/111 118/254/111 108/236/111
f 106/217/112 116/255/112 115/256/112 105/218/112
